Coordinates
version=1
nRows=19
nColumns=34
inDegrees=yes

Units are S.I. units (second, meters, Newtons, ...)
If the header above contains a line with 'inDegrees', this indicates whether rotational values are in degrees (yes) or radians (no).

endheader
time	pelvis_tilt	pelvis_list	pelvis_rotation	pelvis_tx	pelvis_ty	pelvis_tz	hip_flexion_r	hip_adduction_r	hip_rotation_r	knee_angle_r	ankle_angle_r	subtalar_angle_r	mtp_angle_r	hip_flexion_l	hip_adduction_l	hip_rotation_l	knee_angle_l	ankle_angle_l	subtalar_angle_l	mtp_angle_l	lumbar_extension	lumbar_bending	lumbar_rotation	arm_flex_r	arm_add_r	arm_rot_r	elbow_flex_r	pro_sup_r	arm_flex_l	arm_add_l	arm_rot_l	elbow_flex_l	pro_sup_l
      7.50000000	      0.95016473	     -2.23885401	    -59.81471055	      2.58951999	      1.01173128	      7.57710063	    -16.64516426	      1.52935390	    -18.25740731	     33.79914721	     12.57855867	      6.11251812	      0.00000000	    -30.00000025	     -0.61438845	      2.87995018	      0.00000000	     38.37230221	     16.01546257	      0.00000000	     16.64800808	     -6.23995126	      4.81138003	      4.35153818	     -9.71912314	     25.96919288	     83.42742818	    119.74817918	      3.57514385	     -8.88657729	     20.61738425	     97.47483798	    119.74817918
      7.51666670	     -0.39105440	     -2.37132671	    -60.47196602	      2.58868110	      1.00906969	      7.58511333	    -17.06810547	      2.88363396	    -17.72402471	     31.68410726	      7.49789666	      6.12657697	      0.00000000	    -30.00000025	     -1.75366464	     -0.56385969	      0.00000000	     39.64299616	     18.55050750	      0.00000000	     17.67361318	     -5.23587831	      4.29039525	      3.73494248	     -8.94362093	     25.53306649	     84.49684607	    119.74817918	      1.74439781	    -10.33317155	     20.56408503	     99.67903738	    119.74817918
      7.53333330	     -1.04795080	     -2.05177917	    -61.67577005	      2.58881806	      1.00605050	      7.59201642	    -17.92407378	      3.36781685	    -16.16964077	     28.59074911	      3.40846122	      6.36478924	      0.00000000	    -30.00000025	     -1.70699874	     -2.72615804	      0.00000000	     40.12390840	     19.75299274	      0.00000000	     18.76279063	     -4.47218972	      4.45941042	      3.11176007	     -8.60425642	     24.91942628	     85.56737193	    119.74817918	     -0.18682574	    -11.46547662	     20.23685905	    100.93258125	    119.74817918
      7.55000000	     -0.92579038	     -1.49006055	    -62.61994243	      2.58879292	      1.00244904	      7.59795995	    -18.76672822	      2.87797201	    -15.50607025	     26.12891435	      1.13248067	      7.43223021	      0.00000000	    -30.00000025	     -0.96331335	     -3.18117370	      0.00000000	     40.33858526	     19.63353103	      0.00000000	     19.59648751	     -4.69098371	      4.51785806	      3.63404432	     -7.91707281	     24.43845496	     86.65137561	    119.74817918	     -1.65392815	    -12.83989342	     20.57135158	    101.67264843	    119.74817918
      7.56666670	     -1.15144287	     -1.13050722	    -63.09069623	      2.58948985	      0.99921557	      7.60328106	    -19.84617179	      3.17059499	    -14.61001876	     23.29083623	     -0.56439662	      7.91998249	      0.00000000	    -30.00000025	     -0.87455689	     -3.56765482	      0.00000000	     40.63963159	     19.65951514	      0.00000000	     20.37853612	     -4.55591651	      4.42906828	      4.42911245	     -7.38099612	     24.15581504	     87.90374323	    119.74817918	     -2.67791304	    -13.99666850	     21.13537357	    102.49186337	    119.74817918
      7.58333330	     -0.87813840	     -1.15601764	    -63.09091245	      2.59072387	      0.99701449	      7.60750826	    -21.39021053	      3.42912107	    -13.28877921	     20.67672807	     -1.57797961	      6.59366197	      0.00000000	    -30.00000025	     -0.73305842	     -3.70974969	      0.94705280	     41.25884905	     19.73253712	      0.00000000	     20.39534853	     -4.83018756	      4.21794413	      5.12048551	     -7.35321181	     23.83062700	     88.93139422	    119.74817918	     -3.34749840	    -15.01827038	     21.32414275	    102.68647706	    119.74817918
      7.60000000	     -0.27082046	     -1.14742100	    -63.58483640	      2.59168293	      0.99618849	      7.61143977	    -22.48152607	      2.78272633	    -12.81081095	     19.19991246	     -1.89787085	      6.47521095	      0.00000000	    -30.00000025	      0.02472272	     -4.17324328	      2.11181043	     41.01355804	     19.24984490	      0.00000000	     20.47890919	     -5.34262079	      4.29636827	      5.85050523	     -7.12362395	     23.14101576	     89.48589578	    119.74817918	     -4.55717866	    -15.68561772	     21.64530418	    102.59652542	    119.74817918
      7.61666670	      0.45464285	     -1.64427839	    -63.41914922	      2.59175222	      0.99581206	      7.61327089	    -23.91443679	      2.73894022	    -11.67802329	     18.02994967	     -1.77592245	      5.00668923	      0.00000000	    -30.00000025	      0.28340817	     -4.09229876	      3.96082213	     41.31935797	     18.45610302	      0.00000000	     19.41869200	     -6.20272708	      3.53326208	      7.28867717	     -6.06847996	     21.90853777	     89.92412139	    119.74817918	     -5.26025049	    -16.36232433	     22.14455942	    102.45098844	    119.74817918
      7.63333330	      0.98645598	     -2.11403355	    -63.88996618	      2.59157436	      0.99503365	      7.61511851	    -25.06324822	      2.41755948	    -10.80546756	     17.19657544	     -0.60078759	      5.08661810	      0.00000000	    -30.00000025	      0.72242927	     -4.17374973	      5.72308515	     41.50484597	     17.36164156	      0.00000000	     18.62652375	     -6.56708981	      3.61665660	      8.84561782	     -5.45729133	     20.90070456	     90.02241951	    119.74817918	     -5.33966692	    -16.67310338	     22.14522650	    102.24174472	    119.74817918
      7.65000000	      1.75692796	     -3.01387771	    -64.28026891	      2.59152876	      0.99406879	      7.61687267	    -26.88539245	      2.10288404	     -9.72756468	     16.15965620	      1.56432927	      5.11271302	      0.00000000	    -30.00000025	      1.15912432	     -3.80535081	      8.57793762	     42.14904435	     15.33124549	      0.00000000	     17.36939185	     -6.98029572	      3.78800781	     10.61890604	     -5.11510025	     20.43929520	     89.63939348	    119.74817918	     -4.45507941	    -16.99602269	     22.37014590	    101.28809512	    119.74817918
      7.66666670	      2.94807080	     -4.09619276	    -64.38644615	      2.59132152	      0.99364355	      7.61799542	    -29.19146316	      1.61661695	     -8.86204846	     15.22937703	      5.27273707	      5.86800713	      0.00000000	    -30.00000025	      2.22385713	      0.55023701	     11.96877779	     41.16052672	      8.24072912	      0.00000000	     15.61521933	     -7.72671108	      3.82537413	     12.27877198	     -4.28266986	     20.10863353	     89.14130355	    119.74817918	     -2.87806920	    -17.54619464	     23.19641636	     99.73819683	    119.74817918
      7.68333330	      3.61207302	     -5.28220311	    -66.43217062	      2.58950010	      0.99188464	      7.61803574	    -30.00000025	      0.25698506	     -7.43964061	     16.75071393	     11.37212440	      7.03658467	      0.00000000	    -30.00000025	      3.60886326	     -0.38266485	     15.19174874	     41.18504087	      5.42501739	      0.00000000	     14.06411677	     -6.91858898	      5.37650087	     14.53505290	     -4.10310336	     20.84861222	     88.01902256	    119.74817918	     -0.99491331	    -17.24687265	     23.50966557	     97.57173265	    119.74817918
      7.70000000	      4.48044071	     -6.41825668	    -68.80228383	      2.58616616	      0.99019676	      7.61637286	    -30.00000025	     -1.65994157	     -6.33505907	     19.35882886	     18.32190931	      8.50668933	      0.00000000	    -30.00000025	      5.30229598	     -2.08498039	     18.12076793	     41.09873353	      3.17734693	      0.00000000	     12.13235615	     -6.33758249	      7.74334735	     17.00323145	     -4.19276536	     21.70672113	     86.94691978	    119.74817918	      1.39104193	    -16.65921913	     24.24848600	     94.79986534	    119.74817918
      7.71666670	      4.35971435	     -7.36924075	    -69.67044007	      2.58426698	      0.98837520	      7.61338978	    -30.00000025	     -1.89237266	     -6.33168702	     20.66145014	     24.35567132	     10.90288877	      0.00000000	    -28.06107238	      4.92715803	     -4.53615736	     23.62337221	     41.82410590	      2.56559987	      0.00000000	     10.45806580	     -5.32862954	      8.63422008	     18.84190431	     -4.24757091	     22.25013868	     85.95788384	    119.74817918	      3.61069109	    -16.38984966	     25.63284595	     92.03272106	    119.74817918
      7.73333330	      3.78986584	     -8.43767638	    -70.06920557	      2.58192533	      0.98686846	      7.61095779	    -30.00000025	     -1.18726756	     -6.19830243	     21.87622351	     28.78951351	     11.35234673	      0.00000000	    -26.30758572	      3.63561657	     -6.83367091	     28.76874000	     42.41589598	      1.69485133	      0.00000000	      8.71300377	     -4.20445085	      9.27407471	     20.38465986	     -4.39104412	     22.56635336	     84.82237124	    119.74817918	      5.22915258	    -15.85571203	     26.58266095	     89.54123237	    119.74817918
      7.75000000	      3.15740982	     -9.62558295	    -70.51181191	      2.57999959	      0.98665003	      7.60911295	    -30.00000025	     -0.39400865	     -5.67824777	     23.19407421	     31.82170591	     10.62912229	      0.00000000	    -25.21172597	      2.54628242	     -7.75202424	     32.80372194	     41.88277757	     -0.39057171	      0.00000000	      7.07950823	     -2.94477546	      9.62615325	     21.38281676	     -4.41885838	     23.04384110	     83.59515844	    119.74817918	      6.45802132	    -15.34934836	     27.14168842	     87.65235100	    119.74817918
      7.76666670	      1.40939798	    -10.71657403	    -71.61736561	      2.57880795	      0.98722509	      7.60911180	    -30.00000025	      1.61496138	     -2.47249093	     23.32341638	     32.86125821	      7.21758492	      0.00000000	    -24.48994993	      0.88467017	     -9.19356950	     35.38209195	     40.75387688	     -3.35288343	      0.00000000	      6.27647695	     -0.35737144	     10.81710860	     21.32924899	     -5.11704939	     22.92331339	     83.12491609	    119.74817918	      7.68036609	    -14.17702795	     27.51396928	     85.59869140	    119.74715764
      7.78333330	      0.34061061	    -11.22915775	    -72.02707847	      2.57940988	      0.98750448	      7.60964791	    -30.00000025	      2.68523823	     -1.85221999	     23.56771812	     35.41235467	      6.85696669	      0.00000000	    -23.96986170	     -0.14310625	     -9.95459200	     36.83834314	     39.96506102	     -5.24020179	      0.00000000	      5.84857296	      1.18616519	     10.90190123	     20.89645354	     -5.13415744	     22.65107049	     82.40860195	    119.74817918	      7.98046222	    -13.55430590	     27.26636137	     84.45436508	    119.69425498
      7.80000000	     -0.50929638	    -10.84665339	    -72.80009548	      2.57977913	      0.98592476	      7.61241712	    -30.00000025	      3.14915446	     -1.72897676	     22.33589414	     39.28284678	      6.74260810	      0.00000000	    -22.79961701	     -0.71672061	    -11.04755158	     38.39624788	     39.48430739	     -6.25437993	      0.00000000	      6.68898291	      2.29439478	     11.59417850	     19.74796045	     -5.13802949	     22.38288835	     82.88017170	    119.74817918	      7.57839169	    -12.75585002	     26.79327355	     83.71037748	    119.63544089
